<?xml version="1.0" encoding="utf-8"?>
<!-- Generator: Adobe Illustrator 20.1.0, SVG Export Plug-In . SVG Version: 6.00 Build 0)  -->
<svg version="1.1" id="Layer_1" xmlns="http://www.w3.org/2000/svg" xmlns:xlink="http://www.w3.org/1999/xlink" x="0px" y="0px"
	 viewBox="0 0 116 116" style="enable-background:new 0 0 116 116;" xml:space="preserve">
<path d="M58,8C30.4,8,8,30.4,8,58s22.4,50,50,50s50-22.4,50-50S85.6,8,58,8z M104.8,62.1C81.1,53.8,62.3,35,53.9,11.2
	C83,8.7,107.3,32.9,104.8,62.1z M43.9,43.9c7.8-7.8,20.5-7.8,28.3,0s7.8,20.5,0,28.3s-20.5,7.8-28.3,0S36,51.7,43.9,43.9z
	 M11.2,53.9c23.7,8.3,42.6,27.1,50.9,50.9C32.9,107.3,8.7,83,11.2,53.9z"/>
</svg>
