<?xml version="1.0" encoding="utf-8"?>
<!-- Generator: Adobe Illustrator 20.1.0, SVG Export Plug-In . SVG Version: 6.00 Build 0)  -->
<svg version="1.1" id="Layer_1" xmlns="http://www.w3.org/2000/svg" xmlns:xlink="http://www.w3.org/1999/xlink" x="0px" y="0px"
	 viewBox="0 0 116 116" style="enable-background:new 0 0 116 116;" xml:space="preserve">
<style type="text/css">
	.st0{fill:#8150EF;}
	.st1{fill:#4D90F4;}
	.st2{fill:#2F2F5D;}
	.st3{fill:#FFFFFF;}
</style>
<path class="st0" d="M42.3,73.7c9.9,9.9,16.9,21.6,20.7,34.1c23.7-2.3,42.4-21,44.7-44.7c-12.5-3.9-24.2-10.9-34.1-20.7L42.3,73.7z"
	/>
<path class="st1" d="M73.7,42.3L73.7,42.3c-9.9-9.9-16.9-21.6-20.7-34.1c-23.7,2.3-42.4,21-44.7,44.7c12.5,3.9,24.2,10.9,34.1,20.7
	v0L73.7,42.3z"/>
<ellipse transform="matrix(0.7071 -0.7071 0.7071 0.7071 -24.0247 58.0006)" class="st2" cx="58" cy="58" rx="22" ry="22"/>
<path class="st3" d="M52.9,8.3C61,34.3,81.6,55,107.7,63.1C110.9,31.5,84.4,5.1,52.9,8.3z"/>
<path class="st3" d="M63.1,107.7C55,81.7,34.4,61,8.3,52.9C5.1,84.5,31.6,110.9,63.1,107.7z"/>
</svg>
