<?xml version="1.0" encoding="utf-8"?>
<!-- Generator: Adobe Illustrator 21.0.0, SVG Export Plug-In . SVG Version: 6.00 Build 0)  -->
<svg version="1.1" id="Layer_1" xmlns="http://www.w3.org/2000/svg" xmlns:xlink="http://www.w3.org/1999/xlink" x="0px" y="0px"
	 viewBox="0 0 116 116" style="enable-background:new 0 0 116 116;" xml:space="preserve">
<style type="text/css">
	.st0{fill:#8150EF;}
	.st1{fill:#4D90F4;}
	.st2{fill:#2F2F5D;}
	.st3{fill:#FFFFFF;}
</style>
<g>
	<path class="st0" d="M42.313591,73.686882c9.87011,9.870232,16.868416,21.591133,20.738979,34.056114
		c23.68047-2.31514,42.375011-21.009331,44.690105-44.690105C95.27784,59.182278,83.556358,52.184048,73.686249,42.31382
		L42.313591,73.686882z"/>
	<path class="st1" d="M73.686249,42.31382l-0.000008-0.000008c-9.870106-9.870235-16.86813-21.59177-20.738693-34.056751
		C29.267078,10.572195,10.572525,29.266369,8.257421,52.94714c12.464821,3.870613,24.186068,10.869499,34.056168,20.739735v0.000008
		L73.686249,42.31382z"/>
	
		<ellipse transform="matrix(0.707102 -0.707111 0.707111 0.707102 -24.02466 58.000568)" class="st2" cx="57.999916" cy="58.000351" rx="22.042198" ry="22.042198"/>
	<path class="st3" d="M52.947548,8.257062c8.067341,26.088402,28.654411,46.712109,54.795128,54.79583
		C110.907097,31.517778,84.43959,5.096885,52.947548,8.257062z"/>
	<path class="st3" d="M63.05257,107.742996C54.985237,81.654587,34.39814,61.030861,8.257421,52.94714
		C5.091702,84.495453,31.571623,110.902031,63.05257,107.742996z"/>
</g>
</svg>
