<?xml version="1.0" encoding="utf-8"?>
<!-- Generator: Adobe Illustrator 21.0.0, SVG Export Plug-In . SVG Version: 6.00 Build 0)  -->
<svg version="1.1" id="Layer_1" xmlns="http://www.w3.org/2000/svg" xmlns:xlink="http://www.w3.org/1999/xlink" x="0px" y="0px"
	 viewBox="0 0 366 116" style="enable-background:new 0 0 366 116;" xml:space="preserve">
<style type="text/css">
	.st0{fill:#FFFFFF;}
	.st1{fill:#8150EF;}
	.st2{fill:#4D90F4;}
	.st3{fill:#2F2F5D;}
</style>
<path class="st0" d="M175.449997,24c-9.5,0-43,0-43,0l4.5,11.900002h2.899994V92h36
	c7.899994,0,12.100006-4.300003,12.100006-12.400002V67.5c0-3.300003-0.699997-5.5-2.100006-7
	c-1.199997-1.299999-2.899994-2-5.300003-2.299999l-5.699997-0.799999l5.300003-1.299999c6.399994-1.400002,7-5.5,7-9.700001
	c0,0,0-4.900002,0-10.5S184.949997,24,175.449997,24z M173.649994,77.5c-0.100006,1.599998-1.100006,2.5-2.699997,2.5h-16.899994
	l0.100006-17.299999c0,0,13.600006,0,16.5,0s3,2.400005,3,2.999996L173.649994,77.5z M172.849991,38.900002
	c0,1.799999,0,10.099998,0,10.099998c0,1.599998-0.899994,2.599998-2.5,2.599998h-16.199997V35.900002c0,0,13.899994,0,15.800003,0
	C171.849991,35.900002,172.849991,37,172.849991,38.900002z"/>
<path class="st0" d="M243.550018,92l21.799988-56.099976l10.5,26.899963h-13l-4.200012,11.100037h21.5L287.250031,92h21V44.200012
	l16.199951,24.099976h5l16.400024-24.099976V92h12.099976V24h-12l-19.099976,28l-18.5-28H295.76004v55.936401L273.550018,24
	h-17.200012l-21.61499,56.099915L204.649994,80l-0.099976-17.299988h23.799988V51.599976h-23.900024l-0.099976-15.699951h30.299988
	V24h-39c-2.899963,0-5,2.099976-5,4.900024V85c0,3.599976,3.299988,6.799988,6.900024,7H243.550018z"/>
<g>
	<path class="st1" d="M42.313591,73.686882c9.87011,9.870232,16.868416,21.591133,20.738979,34.056114
		c23.68047-2.31514,42.375011-21.009331,44.690105-44.690105C95.27784,59.182278,83.556358,52.184048,73.686249,42.31382
		L42.313591,73.686882z"/>
	<path class="st2" d="M73.686249,42.31382l-0.000008-0.000008c-9.870106-9.870235-16.86813-21.59177-20.738693-34.056751
		C29.267078,10.572195,10.572525,29.266369,8.257421,52.94714c12.464821,3.870613,24.186068,10.869499,34.056168,20.739735v0.000008
		L73.686249,42.31382z"/>
	
		<ellipse transform="matrix(0.707102 -0.707111 0.707111 0.707102 -24.02466 58.000568)" class="st3" cx="57.999916" cy="58.000351" rx="22.042198" ry="22.042198"/>
	<path class="st0" d="M52.947548,8.257062c8.067341,26.088402,28.654411,46.712109,54.795128,54.79583
		C110.907097,31.517778,84.43959,5.096885,52.947548,8.257062z"/>
	<path class="st0" d="M63.05257,107.742996C54.985237,81.654587,34.39814,61.030861,8.257421,52.94714
		C5.091702,84.495453,31.571623,110.902031,63.05257,107.742996z"/>
</g>
</svg>
