<?xml version="1.0" encoding="utf-8"?>
<!-- Generator: Adobe Illustrator 21.0.0, SVG Export Plug-In . SVG Version: 6.00 Build 0)  -->
<svg version="1.1" id="Layer_1" xmlns="http://www.w3.org/2000/svg" xmlns:xlink="http://www.w3.org/1999/xlink" x="0px" y="0px"
	 viewBox="0 0 116 116" style="enable-background:new 0 0 116 116;" xml:space="preserve">
<style type="text/css">
	.st0{fill:#FFFFFF;}
</style>
<path class="st0" d="M58,8C30.385767,8,8,30.385761,8,58s22.385767,50,50,50s50-22.385765,50-50S85.614243,8,58,8z
	 M104.824257,62.085594C81.11969,53.779129,62.254265,34.976933,53.914032,11.175776
	C83.029121,8.668338,107.333191,32.949608,104.824257,62.085594z M43.857868,43.857868
	c7.810486-7.810493,20.473782-7.810493,28.284267,0s7.810486,20.473782,0,28.284267s-20.473782,7.810486-28.284267,0
	S36.047382,51.668354,43.857868,43.857868z M11.175769,53.914093c23.705326,8.306675,42.569561,27.109047,50.909855,50.910164
	C32.934696,107.334587,8.669615,83.015427,11.175769,53.914093z"/>
</svg>
