<?xml version="1.0" encoding="utf-8"?>
<!-- Generator: Adobe Illustrator 21.0.0, SVG Export Plug-In . SVG Version: 6.00 Build 0)  -->
<svg version="1.1" id="Layer_1" xmlns="http://www.w3.org/2000/svg" xmlns:xlink="http://www.w3.org/1999/xlink" x="0px" y="0px"
	 viewBox="0 0 241 84" style="enable-background:new 0 0 241 84;" xml:space="preserve">
<path d="M51,8C41.5,8,8,8,8,8l4.5,11.9h2.899994V76h36C59.299988,76,63.5,71.699997,63.5,63.599998V51.5
	c0-3.299999-0.699997-5.5-2.100006-7c-1.199997-1.299999-2.899994-2-5.300003-2.299999l-5.699997-0.799999l5.300003-1.299999
	c6.399994-1.400002,7-5.5,7-9.700001c0,0,0-4.900002,0-10.5S60.5,8,51,8z M49.199997,61.5C49.099991,63.099998,48.099991,64,46.5,64
	H29.600006l0.100006-17.299999c0,0,13.600006,0,16.5,0s3,2.400002,3,3L49.199997,61.5z M48.399994,22.9c0,1.800001,0,10.1,0,10.1
	c0,1.599998-0.899994,2.599998-2.5,2.599998H29.699997V19.9c0,0,13.899994,0,15.800003,0
	C47.399994,19.9,48.399994,21,48.399994,22.9z"/>
<path d="M119.100021,76l21.799988-56.099976l10.5,26.899963h-13l-4.200012,11.100037h21.5L162.800034,76h21V28.200012
	l16.199951,24.099976h5l16.400024-24.099976V76h12.099976V8h-12l-19.099976,28l-18.5-28h-12.589966v55.936401L149.100021,8
	h-17.200012l-21.61499,56.099915L80.199997,64l-0.099976-17.299988h23.799988V35.599976H79.999985l-0.099976-15.699951h30.299988V8
	h-39c-2.899963,0-5,2.099976-5,4.900024V69c0,3.599976,3.299988,6.799988,6.900024,7H119.100021z"/>
</svg>
