<?xml version="1.0" encoding="utf-8"?>
<!-- Generator: Adobe Illustrator 21.0.0, SVG Export Plug-In . SVG Version: 6.00 Build 0)  -->
<svg version="1.1" id="Layer_1" xmlns="http://www.w3.org/2000/svg" xmlns:xlink="http://www.w3.org/1999/xlink" x="0px" y="0px"
	 viewBox="0 0 241 84" style="enable-background:new 0 0 241 84;" xml:space="preserve">
<path d="M51.566296,76H15.623438V21.502762h-2.517272L8,8h43.177345c7.955467,0,12.33733,4.450168,12.33733,12.531334v10.199999
	c0,3.046625,0,8.717718-7.563671,10.372183l-0.220089,0.0536l0.535992,0.075417
	c2.605972,0.32539,4.430248,1.131752,5.727066,2.53672c1.566238,1.679131,2.297653,4.050781,2.297653,7.45932v11.753906
	C64.291626,71.377174,59.772209,76,51.566296,76z M17.566294,74.057144h34c7.154797,0,10.782478-3.726341,10.782478-11.074665
	V51.228573c0-2.886776-0.565403-4.836273-1.77874-6.136887c-0.984711-1.067245-2.390152-1.662056-4.558788-1.933372
	l-10.553379-1.481808l10.053909-2.465569c5.605637-1.22662,6.060043-4.56543,6.060043-8.479605V20.531334
	c0-7.025782-3.497238-10.588477-10.394474-10.588477H10.811831l3.636691,9.617049h3.117772V74.057144z M46.805916,64.342857
	H29.411747l0.108622-18.748383h16.994307c2.864956,0,3.885715,2.007366,3.885715,3.885715l-0.001896,11.52338
	C50.269474,63.063114,48.892967,64.342857,46.805916,64.342857z M31.365988,62.400002h15.439928
	c1.039257,0,1.579521-0.487614,1.651619-1.489399V49.48019c0-1.942856-1.41161-1.942856-1.94286-1.942856H31.451841
	L31.365988,62.400002z M46.223438,36.754379H29.514677V19.559906h16.319811c2.337025,0,3.788948,1.488922,3.788948,3.885714
	v9.811522C49.623436,35.381668,48.288673,36.754379,46.223438,36.754379z M31.457533,34.811523h14.765905
	c0.980438,0,1.457142-0.508484,1.457142-1.554382V23.44562c0-1.343779-0.569195-1.942858-1.846092-1.942858H31.457533V34.811523z"/>
<path d="M229.434494,76h-13.696777V31.748772l-14.446198,21.22818h-5.888336l-14.248886-21.195925V76h-22.0336l-6.896759-17.582478
	h-21.629456l4.815399-12.726284h11.877228l-8.776062-22.483259L117.997208,76H72.646484
	c-4.113396-0.227676-7.674667-3.8582-7.674667-7.771431V13.731334C64.971817,10.464147,67.477234,8,70.800392,8h38.85714v13.502762
	H80.23008l0.084427,13.308762h23.223213v12.725811H80.423607l0.085381,14.865513l27.593689,0.092018L129.09938,8h18.034988
	l19.944656,50.230637V8h13.724274l17.46199,26.428738L216.292694,8h13.1418V76z M70.800392,9.942857
	c-2.251175,0-3.885719,1.593276-3.885719,3.788477v54.497234c0,2.934212,2.70369,5.65876,5.785889,5.830475l43.966629-0.0019
	l21.840057-56.202457l11.623947,29.779408h-13.379913l-3.344971,8.840572h20.141953l6.896774,17.582478h18.766403v-48.64922
	l17.22673,25.626171h3.824997l17.417419-25.593918v48.616966h9.811035V9.942857h-10.172485L198.238724,37.91412l-18.48085-27.971264
	h-10.735992v58.446037L145.815735,9.942857h-15.382538l-20.998596,54.498665l-30.857086-0.101509L78.46936,45.594475h23.125504
	v-8.840096h-23.21183l-0.109093-17.194473h29.440735V9.942857H70.800392z"/>
</svg>
