<?xml version="1.0" encoding="utf-8"?>
<!-- Generator: Adobe Illustrator 21.0.0, SVG Export Plug-In . SVG Version: 6.00 Build 0)  -->
<svg version="1.1" id="Layer_1" xmlns="http://www.w3.org/2000/svg" xmlns:xlink="http://www.w3.org/1999/xlink" x="0px" y="0px"
	 viewBox="0 0 366 116" style="enable-background:new 0 0 366 116;" xml:space="preserve">
<style type="text/css">
	.st0{fill:#2D3742;}
	.st1{fill:#8150EF;}
	.st2{fill:#4D90F4;}
	.st3{fill:#2F2F5D;}
	.st4{fill:#FFFFFF;}
	.st5{fill:#3F61B7;}
	.st6{fill:#5631C0;}
	.st7{fill:#B5B5C4;}
</style>
<path class="st0" d="M175.449997,24c-9.5,0-43,0-43,0l4.5,11.900002h2.899994V92h36
	c7.899994,0,12.100006-4.300003,12.100006-12.400002V67.5c0-3.300003-0.699997-5.5-2.100006-7
	c-1.199997-1.299999-2.899994-2-5.300003-2.299999l-5.699997-0.799999l5.300003-1.299999c6.399994-1.400002,7-5.5,7-9.700001
	c0,0,0-4.900002,0-10.5S184.949997,24,175.449997,24z M173.649994,77.5c-0.100006,1.599998-1.100006,2.5-2.699997,2.5h-16.899994
	l0.100006-17.299999c0,0,13.600006,0,16.5,0s3,2.400005,3,2.999996L173.649994,77.5z M172.849991,38.900002
	c0,1.799999,0,10.099998,0,10.099998c0,1.599998-0.899994,2.599998-2.5,2.599998h-16.199997V35.900002c0,0,13.899994,0,15.800003,0
	C171.849991,35.900002,172.849991,37,172.849991,38.900002z"/>
<path class="st0" d="M243.550018,92l21.799988-56.099976l10.5,26.899963h-13l-4.200012,11.100037h21.5L287.250031,92h21V44.200012
	l16.199951,24.099976h5l16.400024-24.099976V92h12.099976V24h-12l-19.099976,28l-18.5-28H295.76004v55.936401L273.550018,24
	h-17.200012l-21.61499,56.099915L204.649994,80l-0.099976-17.299988h23.799988V51.599976h-23.900024l-0.099976-15.699951h30.299988
	V24h-39c-2.899963,0-5,2.099976-5,4.900024V85c0,3.599976,3.299988,6.799988,6.900024,7H243.550018z"/>
<g>
	<path class="st1" d="M42.313545,73.693413c9.355129,9.355255,16.129791,20.37323,20.107059,32.111404
		c22.981205-2.098587,41.278591-20.395859,43.377369-43.377003c-11.738205-3.977291-22.756798-10.751919-32.112-20.107239
		L42.313545,73.693413z"/>
	<path class="st2" d="M73.685974,42.320576l-0.000008-0.000004c-9.355148-9.355274-16.129562-20.37385-20.1068-32.112118
		c-22.981243,2.098552-41.278687,20.395847-43.377472,43.377029c11.73821,3.977341,22.756626,10.752575,32.111851,20.107922
		v0.000008L73.685974,42.320576z"/>
	
		<ellipse transform="matrix(0.707102 -0.707111 0.707111 0.707102 -24.029406 58.002403)" class="st3" cx="57.999752" cy="58.006996" rx="22.042038" ry="22.042038"/>
	<path class="st4" d="M62.424049,105.804489C54.16922,81.282036,34.770615,61.852047,10.202026,53.582012
		C7.466912,83.50708,32.479069,108.541199,62.424049,105.804489z"/>
	<path class="st5" d="M53.915771,11.182448c-0.341908-0.967926-0.664749-1.940948-0.968311-2.918555
		C29.447641,10.561347,10.557873,29.424124,8.257498,52.953804c0.977499,0.303535,1.950414,0.62635,2.918235,0.968239
		C13.129897,31.223421,31.217087,13.136385,53.915771,11.182448z"/>
	<path class="st4" d="M53.575729,10.208782c8.254799,24.522461,27.653358,43.952442,52.221924,52.222496
		C108.532852,32.505718,83.520012,7.472208,53.575729,10.208782z"/>
	<path class="st6" d="M107.742378,63.059517c-0.977524-0.303547-1.950478-0.626366-2.918327-0.968262
		c-1.954178,22.698593-20.041313,40.785599-42.739956,42.739578c0.341927,0.967941,0.66478,1.940987,0.968349,2.918617
		C86.473778,105.459694,105.434914,86.663414,107.742378,63.059517z"/>
	<path class="st7" d="M107.742264,63.059872c3.16288-31.51906-23.285934-57.95752-54.794914-54.795624
		c0.303322,0.980901,0.624687,1.953918,0.963039,2.91899c29.069775-2.505629,53.429325,21.724571,50.913105,50.913662
		C105.788414,62.435177,106.761345,62.756531,107.742264,63.059872z"/>
	<path class="st7" d="M63.052444,107.749451c-0.303333-0.980919-0.624321-1.954002-0.962685-2.919098
		c-29.123432,2.510429-53.424961-21.780922-50.913536-50.914009c-0.964882-0.338264-1.937838-0.65921-2.918726-0.96254
		C5.099539,84.424713,31.486258,110.917114,63.052444,107.749451z"/>
</g>
</svg>
