<?xml version="1.0" encoding="utf-8"?>
<!-- Generator: Adobe Illustrator 21.0.0, SVG Export Plug-In . SVG Version: 6.00 Build 0)  -->
<svg version="1.1" id="Layer_1" xmlns="http://www.w3.org/2000/svg" xmlns:xlink="http://www.w3.org/1999/xlink" x="0px" y="0px"
	 viewBox="0 0 366 116" style="enable-background:new 0 0 366 116;" xml:space="preserve">
<path d="M174.566299,92h-35.942856V37.502762h-2.517273L131,24h43.177338c7.955475,0,12.337341,4.450167,12.337341,12.531334
	v10.200001c0,3.046623,0,8.717716-7.563675,10.372181l-0.220093,0.0536l0.535995,0.075417
	c2.605972,0.32539,4.430252,1.131752,5.727066,2.53672c1.566238,1.679131,2.297653,4.050781,2.297653,7.459316v11.753906
	C187.291626,87.377174,182.772217,92,174.566299,92z M140.566299,90.057144h34c7.1548,0,10.782471-3.726341,10.782471-11.074669
	V67.228569c0-2.886772-0.565399-4.836269-1.778732-6.136883c-0.984711-1.067245-2.390152-1.662056-4.558792-1.933372
	l-10.553375-1.481808l10.053909-2.465569c5.605637-1.22662,6.060043-4.56543,6.060043-8.479603V36.531334
	c0-7.025782-3.497238-10.588476-10.394485-10.588476h-40.365509l3.636688,9.617048h3.117783V90.057144z M169.805908,80.342857
	h-17.394165l0.108627-18.748383h16.994308c2.86496,0,3.885712,2.007366,3.885712,3.885712l-0.001892,11.523384
	C173.26947,79.06311,171.892975,80.342857,169.805908,80.342857z M154.365982,78.400002h15.439926
	c1.039261,0,1.579529-0.48761,1.651627-1.489395v-11.43042c0-1.942852-1.411606-1.942852-1.942856-1.942852h-15.062836
	L154.365982,78.400002z M169.223434,52.754379h-16.708755V35.559906h16.319809c2.337021,0,3.788956,1.488922,3.788956,3.885712
	v9.811523C172.623444,51.381668,171.288666,52.754379,169.223434,52.754379z M154.457535,50.811523h14.7659
	c0.980438,0,1.457153-0.508484,1.457153-1.554382v-9.811523c0-1.343777-0.569199-1.942856-1.8461-1.942856h-14.376953V50.811523z"/>
<path d="M352.434479,92h-13.696747V47.748772l-14.446228,21.22818h-5.888336l-14.248871-21.195927V92h-22.0336l-6.896759-17.582481
	h-21.629456l4.815399-12.72628h11.877228l-8.776062-22.483257L240.997208,92h-45.350723
	c-4.113388-0.227676-7.674667-3.8582-7.674667-7.771431V29.731333c0-3.267187,2.505417-5.731333,5.828568-5.731333h38.857147
	v13.502762h-29.42746l0.084442,13.308762h23.223206v12.725811h-23.11412l0.085388,14.865513l27.593689,0.092018L252.09938,24
	h18.034988l19.944641,50.230637V24h13.724274l17.462006,26.428738L339.292694,24h13.141785V92z M193.800385,25.942858
	c-2.25116,0-3.885712,1.593275-3.885712,3.788475v54.497238c0,2.934212,2.70369,5.65876,5.785889,5.830475l43.966629-0.0019
	l21.840073-56.202457l11.623932,29.779408h-13.379913l-3.344971,8.840569h20.141968l6.896759,17.582481h18.766388v-48.64922
	l17.226746,25.626171h3.825012l17.417389-25.593918v48.616966h9.811066V25.942858h-10.172485L321.238739,53.91412
	l-18.480865-27.971262h-10.735992v58.446037l-23.206146-58.446037h-15.382538l-20.998596,54.498665l-30.857086-0.101509
	l-0.108154-18.745537h23.125504v-8.840096h-23.211823l-0.1091-17.194473h29.440735v-9.617048H193.800385z"/>
<path d="M58,8C30.385767,8,8,30.385761,8,58s22.385767,50,50,50s50-22.385765,50-50S85.614243,8,58,8z M104.824257,62.085594
	C81.11969,53.779129,62.254265,34.976933,53.914032,11.175776C83.029121,8.668338,107.333191,32.949608,104.824257,62.085594z
	 M43.857868,43.857868c7.810486-7.810493,20.473782-7.810493,28.284267,0s7.810486,20.473782,0,28.284267
	s-20.473782,7.810486-28.284267,0S36.047382,51.668354,43.857868,43.857868z M11.175769,53.914093
	c23.705326,8.306675,42.569561,27.109047,50.909855,50.910164C32.934696,107.334587,8.669615,83.015427,11.175769,53.914093z"/>
</svg>
