<?xml version="1.0" encoding="utf-8"?>
<!-- Generator: Adobe Illustrator 21.0.0, SVG Export Plug-In . SVG Version: 6.00 Build 0)  -->
<svg version="1.1" id="Layer_1" xmlns="http://www.w3.org/2000/svg" xmlns:xlink="http://www.w3.org/1999/xlink" x="0px" y="0px"
	 viewBox="0 0 366 116" style="enable-background:new 0 0 366 116;" xml:space="preserve">
<style type="text/css">
	.st0{fill:#FFFFFF;}
</style>
<path class="st0" d="M175.449997,24c-9.5,0-43,0-43,0l4.5,11.900002h2.899994V92h36
	c7.899994,0,12.100006-4.300003,12.100006-12.400002V67.5c0-3.300003-0.699997-5.5-2.100006-7
	c-1.199997-1.299999-2.899994-2-5.300003-2.299999l-5.699997-0.799999l5.300003-1.299999c6.399994-1.400002,7-5.5,7-9.700001
	c0,0,0-4.900002,0-10.5S184.949997,24,175.449997,24z M173.649994,77.5c-0.100006,1.599998-1.100006,2.5-2.699997,2.5h-16.899994
	l0.100006-17.299999c0,0,13.600006,0,16.5,0s3,2.400005,3,2.999996L173.649994,77.5z M172.849991,38.900002
	c0,1.799999,0,10.099998,0,10.099998c0,1.599998-0.899994,2.599998-2.5,2.599998h-16.199997V35.900002c0,0,13.899994,0,15.800003,0
	C171.849991,35.900002,172.849991,37,172.849991,38.900002z"/>
<path class="st0" d="M243.550018,92l21.799988-56.099976l10.5,26.899963h-13l-4.200012,11.100037h21.5L287.250031,92h21V44.200012
	l16.199951,24.099976h5l16.400024-24.099976V92h12.099976V24h-12l-19.099976,28l-18.5-28H295.76004v55.936401L273.550018,24
	h-17.200012l-21.61499,56.099915L204.649994,80l-0.099976-17.299988h23.799988V51.599976h-23.900024l-0.099976-15.699951h30.299988
	V24h-39c-2.899963,0-5,2.099976-5,4.900024V85c0,3.599976,3.299988,6.799988,6.900024,7H243.550018z"/>
<path class="st0" d="M58,8C30.385767,8,8,30.385761,8,58s22.385767,50,50,50s50-22.385765,50-50S85.614243,8,58,8z
	 M104.824257,62.085594C81.11969,53.779129,62.254265,34.976933,53.914032,11.175776
	C83.029121,8.668338,107.333191,32.949608,104.824257,62.085594z M43.857868,43.857868
	c7.810486-7.810493,20.473782-7.810493,28.284267,0s7.810486,20.473782,0,28.284267s-20.473782,7.810486-28.284267,0
	S36.047382,51.668354,43.857868,43.857868z M11.175769,53.914093c23.705326,8.306675,42.569561,27.109047,50.909855,50.910164
	C32.934696,107.334587,8.669615,83.015427,11.175769,53.914093z"/>
</svg>
