<?xml version="1.0" encoding="utf-8"?>
<!-- Generator: Adobe Illustrator 20.1.0, SVG Export Plug-In . SVG Version: 6.00 Build 0)  -->
<svg version="1.1" id="Layer_1" xmlns="http://www.w3.org/2000/svg" xmlns:xlink="http://www.w3.org/1999/xlink" x="0px" y="0px"
	 viewBox="0 0 366 116" style="enable-background:new 0 0 366 116;" xml:space="preserve">
<path d="M175.4,24c-9.5,0-43,0-43,0l4.5,11.9h2.9V92h36c7.9,0,12.1-4.3,12.1-12.4V67.5c0-3.3-0.7-5.5-2.1-7c-1.2-1.3-2.9-2-5.3-2.3
	l-5.7-0.8l5.3-1.3c6.4-1.4,7-5.5,7-9.7c0,0,0-4.9,0-10.5S184.9,24,175.4,24z M173.6,77.5c-0.1,1.6-1.1,2.5-2.7,2.5h-16.9l0.1-17.3
	c0,0,13.6,0,16.5,0s3,2.4,3,3L173.6,77.5z M172.8,38.9c0,1.8,0,10.1,0,10.1c0,1.6-0.9,2.6-2.5,2.6h-16.2V35.9c0,0,13.9,0,15.8,0
	C171.8,35.9,172.8,37,172.8,38.9z"/>
<path d="M243.6,92l21.8-56.1l10.5,26.9h-13l-4.2,11.1h21.5l7.1,18.1h21V44.2l16.2,24.1h5l16.4-24.1V92h12.1V24h-12l-19.1,28
	l-18.5-28h-12.6v55.9L273.6,24h-17.2l-21.6,56.1L204.6,80l-0.1-17.3h23.8V51.6h-23.9l-0.1-15.7h30.3V24h-39c-2.9,0-5,2.1-5,4.9V85
	c0,3.6,3.3,6.8,6.9,7H243.6z"/>
<path d="M58,8C30.4,8,8,30.4,8,58s22.4,50,50,50s50-22.4,50-50S85.6,8,58,8z M104.8,62.1C81.1,53.8,62.3,35,53.9,11.2
	C83,8.7,107.3,32.9,104.8,62.1z M43.9,43.9c7.8-7.8,20.5-7.8,28.3,0s7.8,20.5,0,28.3s-20.5,7.8-28.3,0S36,51.7,43.9,43.9z
	 M11.2,53.9c23.7,8.3,42.6,27.1,50.9,50.9C32.9,107.3,8.7,83,11.2,53.9z"/>
</svg>
