<?xml version="1.0" encoding="utf-8"?>
<!-- Generator: Adobe Illustrator 20.1.0, SVG Export Plug-In . SVG Version: 6.00 Build 0)  -->
<svg version="1.1" id="Layer_1" xmlns="http://www.w3.org/2000/svg" xmlns:xlink="http://www.w3.org/1999/xlink" x="0px" y="0px"
	 viewBox="0 0 366 116" style="enable-background:new 0 0 366 116;" xml:space="preserve">
<style type="text/css">
	.st0{fill:#FFFFFF;}
</style>
<path class="st0" d="M174.6,92h-35.9V37.5h-2.5L131,24h43.2c8,0,12.3,4.5,12.3,12.5v10.2c0,3,0,8.7-7.6,10.4l-0.2,0.1l0.5,0.1
	c2.6,0.3,4.4,1.1,5.7,2.5c1.6,1.7,2.3,4.1,2.3,7.5V79C187.3,87.4,182.8,92,174.6,92z M140.6,90.1h34c7.2,0,10.8-3.7,10.8-11.1V67.2
	c0-2.9-0.6-4.8-1.8-6.1c-1-1.1-2.4-1.7-4.6-1.9l-10.6-1.5l10.1-2.5c5.6-1.2,6.1-4.6,6.1-8.5V36.5c0-7-3.5-10.6-10.4-10.6h-40.4
	l3.6,9.6h3.1V90.1z M169.8,80.3h-17.4l0.1-18.7h17c2.9,0,3.9,2,3.9,3.9l0,11.5C173.3,79.1,171.9,80.3,169.8,80.3z M154.4,78.4h15.4
	c1,0,1.6-0.5,1.7-1.5V65.5c0-1.9-1.4-1.9-1.9-1.9h-15.1L154.4,78.4z M169.2,52.8h-16.7V35.6h16.3c2.3,0,3.8,1.5,3.8,3.9v9.8
	C172.6,51.4,171.3,52.8,169.2,52.8z M154.5,50.8h14.8c1,0,1.5-0.5,1.5-1.6v-9.8c0-1.3-0.6-1.9-1.8-1.9h-14.4V50.8z"/>
<path class="st0" d="M352.4,92h-13.7V47.7L324.3,69h-5.9l-14.2-21.2V92h-22l-6.9-17.6h-21.6l4.8-12.7h11.9l-8.8-22.5L241,92h-45.4
	c-4.1-0.2-7.7-3.9-7.7-7.8V29.7c0-3.3,2.5-5.7,5.8-5.7h38.9v13.5h-29.4l0.1,13.3h23.2v12.7h-23.1l0.1,14.9l27.6,0.1l21-54.5h18
	l19.9,50.2V24h13.7l17.5,26.4l18-26.4h13.1V92z M193.8,25.9c-2.3,0-3.9,1.6-3.9,3.8v54.5c0,2.9,2.7,5.7,5.8,5.8l44,0l21.8-56.2
	l11.6,29.8h-13.4l-3.3,8.8h20.1l6.9,17.6h18.8V41.4L319.4,67h3.8l17.4-25.6v48.6h9.8V25.9h-10.2l-19.1,28l-18.5-28H292v58.4
	l-23.2-58.4h-15.4l-21,54.5l-30.9-0.1l-0.1-18.7h23.1v-8.8h-23.2l-0.1-17.2h29.4v-9.6H193.8z"/>
<path class="st0" d="M58,8C30.4,8,8,30.4,8,58s22.4,50,50,50s50-22.4,50-50S85.6,8,58,8z M104.8,62.1C81.1,53.8,62.3,35,53.9,11.2
	C83,8.7,107.3,32.9,104.8,62.1z M43.9,43.9c7.8-7.8,20.5-7.8,28.3,0s7.8,20.5,0,28.3s-20.5,7.8-28.3,0S36,51.7,43.9,43.9z
	 M11.2,53.9c23.7,8.3,42.6,27.1,50.9,50.9C32.9,107.3,8.7,83,11.2,53.9z"/>
</svg>
