<?xml version="1.0" encoding="utf-8"?>
<!-- Generator: Adobe Illustrator 20.1.0, SVG Export Plug-In . SVG Version: 6.00 Build 0)  -->
<svg version="1.1" id="Layer_1" xmlns="http://www.w3.org/2000/svg" xmlns:xlink="http://www.w3.org/1999/xlink" x="0px" y="0px"
	 viewBox="0 0 366 116" style="enable-background:new 0 0 366 116;" xml:space="preserve">
<style type="text/css">
	.st0{fill:#2D3742;}
	.st1{fill:#8150EF;}
	.st2{fill:#4D90F4;}
	.st3{fill:#2F2F5D;}
	.st4{fill:#FFFFFF;}
	.st5{fill:#B5B5C4;}
	.st6{fill:#3F61B7;}
	.st7{fill:#5631C0;}
</style>
<path class="st0" d="M175.4,24c-9.5,0-43,0-43,0l4.5,11.9h2.9V92h36c7.9,0,12.1-4.3,12.1-12.4V67.5c0-3.3-0.7-5.5-2.1-7
	c-1.2-1.3-2.9-2-5.3-2.3l-5.7-0.8l5.3-1.3c6.4-1.4,7-5.5,7-9.7c0,0,0-4.9,0-10.5S184.9,24,175.4,24z M173.6,77.5
	c-0.1,1.6-1.1,2.5-2.7,2.5h-16.9l0.1-17.3c0,0,13.6,0,16.5,0s3,2.4,3,3L173.6,77.5z M172.8,38.9c0,1.8,0,10.1,0,10.1
	c0,1.6-0.9,2.6-2.5,2.6h-16.2V35.9c0,0,13.9,0,15.8,0C171.8,35.9,172.8,37,172.8,38.9z"/>
<path class="st0" d="M243.6,92l21.8-56.1l10.5,26.9h-13l-4.2,11.1h21.5l7.1,18.1h21V44.2l16.2,24.1h5l16.4-24.1V92h12.1V24h-12
	l-19.1,28l-18.5-28h-12.6v55.9L273.6,24h-17.2l-21.6,56.1L204.6,80l-0.1-17.3h23.8V51.6h-23.9l-0.1-15.7h30.3V24h-39
	c-2.9,0-5,2.1-5,4.9V85c0,3.6,3.3,6.8,6.9,7H243.6z"/>
<path class="st1" d="M42.3,73.7c9.5,9.5,16.3,20.7,20.3,32.6c23.1-2.2,41.5-20.6,43.7-43.7c-11.9-4-23.1-10.8-32.6-20.3L42.3,73.7z"
	/>
<path class="st2" d="M73.7,42.3L73.7,42.3c-9.5-9.5-16.3-20.7-20.3-32.6C30.3,11.9,11.9,30.3,9.7,53.4c11.9,4,23.1,10.8,32.6,20.3v0
	L73.7,42.3z"/>
<ellipse transform="matrix(0.7072 -0.707 0.707 0.7072 -24.0304 57.9931)" class="st3" cx="58" cy="58" rx="22" ry="22"/>
<path class="st4" d="M62.6,106.3C54.4,81.4,34.7,61.6,9.7,53.4C6.9,83.8,32.3,109.1,62.6,106.3z"/>
<path class="st4" d="M53.4,9.7c8.2,24.9,27.9,44.6,52.9,52.9C109.1,32.2,83.7,6.9,53.4,9.7z"/>
<path class="st5" d="M52.9,8.3c0.3,1,0.6,2,1,2.9C83,8.7,107.3,33,104.8,62.1c1,0.3,1.9,0.7,2.9,1C111,31.7,84.4,5,52.9,8.3z"/>
<path class="st6" d="M53.9,11.2c-0.3-1-0.7-1.9-1-2.9C29.4,10.6,10.6,29.3,8.3,53c1,0.3,1.9,0.6,2.9,1
	C13.1,31.2,31.2,13.1,53.9,11.2z"/>
<path class="st7" d="M104.8,62.1c-2,22.7-20,40.8-42.7,42.7c0.3,1,0.7,1.9,1,2.9c23.6-2.4,42.3-21.1,44.7-44.7
	C106.8,62.7,105.8,62.4,104.8,62.1z"/>
<path class="st5" d="M11.2,53.9c-1-0.3-1.9-0.7-2.9-1C5.1,84.5,31.6,110.9,63,107.7c-0.3-1-0.6-2-1-2.9
	C32.9,107.1,8.9,83.5,11.2,53.9z"/>
</svg>
