<?xml version="1.0" encoding="utf-8"?>
<!-- Generator: Adobe Illustrator 20.1.0, SVG Export Plug-In . SVG Version: 6.00 Build 0)  -->
<svg version="1.1" id="Layer_1" xmlns="http://www.w3.org/2000/svg" xmlns:xlink="http://www.w3.org/1999/xlink" x="0px" y="0px"
	 viewBox="0 0 366 116" style="enable-background:new 0 0 366 116;" xml:space="preserve">
<style type="text/css">
	.st0{fill:#FFFFFF;}
	.st1{fill:#8150EF;}
	.st2{fill:#4D90F4;}
	.st3{fill:#2F2F5D;}
</style>
<path class="st0" d="M175.4,24c-9.5,0-43,0-43,0l4.5,11.9h2.9V92h36c7.9,0,12.1-4.3,12.1-12.4V67.5c0-3.3-0.7-5.5-2.1-7
	c-1.2-1.3-2.9-2-5.3-2.3l-5.7-0.8l5.3-1.3c6.4-1.4,7-5.5,7-9.7c0,0,0-4.9,0-10.5S184.9,24,175.4,24z M173.6,77.5
	c-0.1,1.6-1.1,2.5-2.7,2.5h-16.9l0.1-17.3c0,0,13.6,0,16.5,0s3,2.4,3,3L173.6,77.5z M172.8,38.9c0,1.8,0,10.1,0,10.1
	c0,1.6-0.9,2.6-2.5,2.6h-16.2V35.9c0,0,13.9,0,15.8,0C171.8,35.9,172.8,37,172.8,38.9z"/>
<path class="st0" d="M243.6,92l21.8-56.1l10.5,26.9h-13l-4.2,11.1h21.5l7.1,18.1h21V44.2l16.2,24.1h5l16.4-24.1V92h12.1V24h-12
	l-19.1,28l-18.5-28h-12.6v55.9L273.6,24h-17.2l-21.6,56.1L204.6,80l-0.1-17.3h23.8V51.6h-23.9l-0.1-15.7h30.3V24h-39
	c-2.9,0-5,2.1-5,4.9V85c0,3.6,3.3,6.8,6.9,7H243.6z"/>
<path class="st1" d="M42.3,73.7c9.9,9.9,16.9,21.6,20.7,34.1c23.7-2.3,42.4-21,44.7-44.7c-12.5-3.9-24.2-10.9-34.1-20.7L42.3,73.7z"
	/>
<path class="st2" d="M73.7,42.3L73.7,42.3c-9.9-9.9-16.9-21.6-20.7-34.1c-23.7,2.3-42.4,21-44.7,44.7c12.5,3.9,24.2,10.9,34.1,20.7
	v0L73.7,42.3z"/>
<ellipse transform="matrix(0.7071 -0.7071 0.7071 0.7071 -24.0247 58.0006)" class="st3" cx="58" cy="58" rx="22" ry="22"/>
<path class="st0" d="M52.9,8.3C61,34.3,81.6,55,107.7,63.1C110.9,31.5,84.4,5.1,52.9,8.3z"/>
<path class="st0" d="M63.1,107.7C55,81.7,34.4,61,8.3,52.9C5.1,84.5,31.6,110.9,63.1,107.7z"/>
</svg>
