<?xml version="1.0" encoding="UTF-8"?>
<svg width="18px" height="18px" viewBox="0 0 18 18" version="1.1" xmlns="http://www.w3.org/2000/svg" xmlns:xlink="http://www.w3.org/1999/xlink">
    <!-- Generator: Sketch 51.1 (57501) - http://www.bohemiancoding.com/sketch -->
    <title>MixPlay-logo</title>
    <desc>Created with Sketch.</desc>
    <defs>
        <polygon id="path-1" points="0 0.00265714286 17.7709613 0.00265714286 17.7709613 11.7142857 0 11.7142857"></polygon>
        <polygon id="path-3" points="0 0 17.7709613 0 17.7709613 11.7118571 0 11.7118571"></polygon>
    </defs>
    <g id="Finalized" stroke="none" stroke-width="1" fill="none" fill-rule="evenodd">
        <g id="Sparks-Patronage---Goal-Reached-Chat-Message" transform="translate(-246.000000, -630.000000)">
            <g id="Group-4" transform="translate(8.000000, 619.000000)">
                <g id="MixPlay-logo" transform="translate(238.000000, 11.000000)">
                    <g id="Group-13" transform="translate(0.000000, 6.285714)">
                        <mask id="mask-2" fill="white">
                            <use xlink:href="#path-1"></use>
                        </mask>
                        <g id="Clip-12"></g>
                        <path d="M14.0785387,11.7143714 L4.24411394,11.7143714 C1.90398119,11.7143714 -5.64159292e-05,9.80494286 -5.64159292e-05,7.45808571 L-5.64159292e-05,3.01294286 C-5.64159292e-05,1.35294286 1.34518142,0.00265714286 2.99901438,0.00265714286 L4.19982743,0.00265714286 C4.58909735,0.00265714286 4.90502655,0.322371429 4.90502655,0.716942857 C4.90502655,1.11151429 4.58909735,1.43122857 4.19982743,1.43122857 L2.99901438,1.43122857 C2.12315708,1.43122857 1.41034181,2.14094286 1.41034181,3.01294286 L1.41034181,7.45808571 C1.41034181,9.01722857 2.68167478,10.2858 4.24411394,10.2858 L14.0785387,10.2858 C15.336896,10.2858 16.3605631,9.26522857 16.3605631,8.01037143 C16.3605631,7.6158 16.6762102,7.29608571 17.0657622,7.29608571 C17.4553142,7.29608571 17.7709613,7.6158 17.7709613,8.01037143 C17.7709613,10.0529429 16.1145896,11.7143714 14.0785387,11.7143714" id="Fill-11" fill="#FFFFFF" mask="url(#mask-2)"></path>
                    </g>
                    <g id="Group-16">
                        <mask id="mask-4" fill="white">
                            <use xlink:href="#path-3"></use>
                        </mask>
                        <g id="Clip-15"></g>
                        <path d="M14.7721726,11.7118571 L13.5713595,11.7118571 C13.1818075,11.7118571 12.8661604,11.3921429 12.8661604,10.9975714 C12.8661604,10.603 13.1818075,10.2832857 13.5713595,10.2832857 L14.7721726,10.2832857 C15.6480299,10.2832857 16.3605631,9.57385714 16.3605631,8.70157143 L16.3605631,4.25642857 C16.3605631,2.69728571 15.1194126,1.42842857 13.5936438,1.42842857 L3.75921903,1.42842857 C2.44218916,1.42842857 1.41034181,2.42814286 1.41034181,3.70414286 C1.41034181,4.09871429 1.09469469,4.41842857 0.705142699,4.41842857 C0.315590708,4.41842857 -5.64159292e-05,4.09871429 -5.64159292e-05,3.70414286 C-5.64159292e-05,1.62728571 1.65123783,-0.000142857143 3.75921903,-0.000142857143 L13.5936438,-0.000142857143 C15.8971062,-0.000142857143 17.7709613,1.90928571 17.7709613,4.25642857 L17.7709613,8.70157143 C17.7709613,10.3615714 16.4257235,11.7118571 14.7721726,11.7118571" id="Fill-14" fill="#00BCF2" mask="url(#mask-4)"></path>
                    </g>
                    <path d="M7.00657633,3.90562857 C6.73549779,3.53677143 6.20349558,3.47734286 5.85879425,3.79448571 C5.5586615,4.07077143 5.53806969,4.54448571 5.78009403,4.87391429 L7.33914823,6.99505714 L5.76852876,9.13162857 C5.52650442,9.46105714 5.54709624,9.93477143 5.84722898,10.2110571 C6.19221239,10.5279143 6.72393252,10.4687714 6.99501106,10.0996286 L9.18676991,7.11791429 C9.24036504,7.04477143 9.24036504,6.94477143 9.18676991,6.87191429 L7.00657633,3.90562857 Z" id="Fill-17" fill="#FFFFFF"></path>
                    <path d="M10.746755,7.90034286 C11.0178335,7.53148571 11.5498357,7.47205714 11.894255,7.7892 C12.1943877,8.06548571 12.2152616,8.5392 11.9729552,8.86862857 L10.413901,10.9894857 L11.9845205,13.1263429 C12.2268269,13.4557714 12.205953,13.9294857 11.9058202,14.2057714 C11.561401,14.5226286 11.0293988,14.4634857 10.7583202,14.0943429 L8.56656139,11.1126286 C8.51296626,11.0394857 8.51296626,10.9394857 8.56656139,10.8666286 L10.746755,7.90034286 Z" id="Fill-19" fill="#00BCF2"></path>
                </g>
            </g>
        </g>
    </g>
</svg>