<?xml version="1.0" encoding="UTF-8"?>
<svg width="148px" height="43px" viewBox="0 0 148 43" version="1.1" xmlns="http://www.w3.org/2000/svg" xmlns:xlink="http://www.w3.org/1999/xlink">
    <!-- Generator: Sketch 49.3 (51167) - http://www.bohemiancoding.com/sketch -->
    <title>MixPlay_logo-solo</title>
    <desc>Created with Sketch.</desc>
    <defs></defs>
    <g id="MixPlay_logo-solo" stroke="none" stroke-width="1" fill="none" fill-rule="evenodd">
        <g id="MixPlay-logo">
            <path d="M94.5826,31.9876 L94.5826,0.3866 L95.4816,0.3866 C97.7476,0.3866 99.5846,2.5126 99.5846,5.6606 L99.5846,31.9866 C99.5846,32.3866 99.2606,32.7126 98.8616,32.7126 L95.3096,32.7126 C94.9076,32.7126 94.5826,32.3866 94.5826,31.9876" id="Fill-1" fill="#FFFFFF"></path>
            <path d="M128.9694,42.9358 C127.9864,42.9358 127.1364,42.8648 126.4194,42.7228 C126.0784,42.6558 125.8354,42.3598 125.8354,42.0138 L125.8354,39.2778 C125.8354,38.7918 126.3034,38.4638 126.7734,38.5928 C127.2834,38.7328 127.8024,38.8028 128.3294,38.8028 C130.1394,38.8028 131.4624,37.8428 132.3014,35.9228 L133.8464,32.3628 L125.1984,10.8478 C125.0074,10.3708 125.3604,9.8528 125.8744,9.8528 L129.9084,9.8528 C130.0904,9.8528 130.2534,9.9648 130.3184,10.1358 L136.1094,25.5628 C136.2294,25.9018 136.7074,25.9058 136.8334,25.5698 L142.5634,10.3508 C142.6754,10.0508 142.9624,9.8528 143.2834,9.8528 L147.2824,9.8528 C147.4434,9.8528 147.5524,10.0128 147.4944,10.1618 L137.8184,35.0668 C136.7874,37.7918 135.5374,39.7848 134.0674,41.0448 C132.5954,42.3048 130.8964,42.9358 128.9694,42.9358" id="Fill-3" fill="#FFFFFF"></path>
            <path d="M108.5992,25.6184 C108.5992,26.5864 108.9522,27.3594 109.6582,27.9374 C110.3652,28.5164 111.2612,28.8064 112.3492,28.8064 C113.8652,28.8064 115.1152,28.2894 116.1012,27.2574 C117.0862,26.2234 117.5792,24.9234 117.5792,23.3544 L117.5792,21.3324 L112.7032,21.9704 C111.1592,22.1894 110.0882,22.5714 109.4932,23.1134 C108.8962,23.6554 108.5992,24.4914 108.5992,25.6184 Z M120.0702,32.7124 C118.6702,32.7124 117.5362,31.5814 117.5362,30.1864 L117.5362,29.1814 L117.4472,29.1814 C115.8722,31.6134 113.6442,32.8294 110.7612,32.8294 C108.5392,32.8294 106.7882,32.2284 105.5102,31.0264 C104.2292,29.8254 103.5892,28.1984 103.5892,26.1464 C103.5892,24.0364 104.2142,22.3444 105.4652,21.0684 C106.7152,19.7944 108.5542,19.0024 110.9822,18.6944 L117.5792,17.7934 C117.5792,14.7304 116.1532,13.1994 113.2982,13.1994 C111.9152,13.1994 110.5742,13.4264 109.2722,13.8814 C108.2302,14.2444 107.2812,14.7064 106.4222,15.2664 C106.1532,15.4424 105.7962,15.2634 105.7962,14.9424 L105.7962,12.0204 C105.7962,11.5114 106.0782,11.0354 106.5392,10.8174 C107.2902,10.4634 108.2602,10.1364 109.4492,9.8364 C111.0742,9.4264 112.5342,9.2214 113.8282,9.2214 C116.7262,9.2214 118.9072,9.9714 120.3702,11.4734 C121.8342,12.9764 122.5662,15.1554 122.5662,18.0134 L122.5662,32.7124 L120.0702,32.7124 Z" id="Fill-5" fill="#FFFFFF"></path>
            <path d="M38.7369,10.4661 C37.2839,10.4661 36.2369,11.6481 36.2369,13.1001 L36.2369,31.9871 C36.2369,32.3871 36.5609,32.7121 36.9619,32.7121 L40.5119,32.7121 C40.9129,32.7121 41.2369,32.3871 41.2369,31.9871 L41.2369,13.1001 C41.2369,11.6481 40.1889,10.4661 38.7369,10.4661" id="Fill-7" fill="#00BCF2"></path>
            <path d="M36.2369,3.886 C36.2369,5.266 37.3559,6.386 38.7369,6.386 C40.1179,6.386 41.2369,5.266 41.2369,3.886 C41.2369,2.505 40.1179,1.385 38.7369,1.385 C37.3559,1.385 36.2369,2.505 36.2369,3.886" id="Fill-9" fill="#00BCF2"></path>
            <path d="M53.2125,21.4329 L45.5805,11.3629 C45.2965,11.0049 45.5595,10.4849 46.0245,10.4849 L50.3455,10.4849 C50.5215,10.4849 50.6875,10.5659 50.7935,10.7029 L56.3855,17.9759 L61.9775,10.7029 C62.0825,10.5659 62.2485,10.4849 62.4245,10.4849 L66.7225,10.4849 C67.1865,10.4849 67.4485,11.0029 67.1665,11.3609 L59.2165,21.4749 L67.4495,31.8329 C67.7345,32.1909 67.4735,32.7119 67.0075,32.7119 L62.3245,32.7119 C62.1505,32.7119 61.9845,32.6319 61.8795,32.4959 L56.0925,25.0559 L50.3055,32.4959 C50.1985,32.6319 50.0335,32.7119 49.8585,32.7119 L45.9135,32.7119 C45.4505,32.7119 45.1885,32.1959 45.4675,31.8369 L53.2125,21.4329 Z" id="Fill-21" fill="#00BCF2"></path>
            <path d="M29.1105,0.387 L24.3795,0.387 C24.1845,0.387 24.0065,0.494 23.9165,0.666 L15.4145,18.969 L7.4625,2.226 C6.8465,1.113 5.6575,0.359 4.2915,0.359 L0.9025,0.359 L0.9025,31.988 C0.9025,32.388 1.2425,32.711 1.6435,32.711 L5.1805,32.711 C5.5815,32.711 5.9045,32.388 5.9045,31.988 L5.9045,8.47 L13.0685,24.983 C13.1565,25.158 13.3375,25.269 13.5335,25.269 L17.0835,25.269 C17.2795,25.269 17.4595,25.158 17.5485,24.983 L24.8375,8.47 L24.8375,31.987 C24.8375,32.388 25.1625,32.711 25.5635,32.711 L29.1135,32.711 C29.5145,32.711 29.8365,32.388 29.8365,31.987 L29.8365,1.114 C29.8365,0.713 29.5115,0.387 29.1105,0.387" id="Fill-23" fill="#00BCF2"></path>
            <path d="M83.5778,14.3587 C82.3858,15.3207 80.7278,15.8017 78.6028,15.8017 L76.3088,15.8017 L76.3088,4.6907 L78.8408,4.6907 C80.9658,4.6907 82.5828,5.1607 83.6968,6.1007 C84.8078,7.0417 85.3648,8.3797 85.3648,10.1167 C85.3648,11.9837 84.7678,13.3967 83.5778,14.3587 M87.8938,2.8377 C85.9928,1.1877 83.2688,0.3617 79.7238,0.3617 L71.2808,0.3617 L71.2808,31.9867 C71.2808,32.3867 71.5068,32.7117 71.9078,32.7117 L75.5558,32.7117 C75.9558,32.7117 76.2798,32.3877 76.2798,31.9867 L76.2798,20.1297 L78.9688,20.1297 C81.2808,20.1297 83.3328,19.6987 85.1288,18.8377 C86.9218,17.9767 88.3068,16.7667 89.2838,15.2097 C90.2598,13.6507 90.7478,11.8977 90.7478,9.9447 C90.7478,6.8587 89.7968,4.4897 87.8938,2.8377" id="Fill-25" fill="#FFFFFF"></path>
        </g>
    </g>
</svg>