<?xml version="1.0" encoding="UTF-8"?>
<svg width="226px" height="63px" viewBox="0 0 226 63" version="1.1" xmlns="http://www.w3.org/2000/svg" xmlns:xlink="http://www.w3.org/1999/xlink">
    <!-- Generator: Sketch 49.3 (51167) - http://www.bohemiancoding.com/sketch -->
    <title>MixPlay_logo</title>
    <desc>Created with Sketch.</desc>
    <defs>
        <polygon id="path-1" points="0 0.0093 62.9998 0.0093 62.9998 41 0 41"></polygon>
        <polygon id="path-3" points="0 0 62.9998 0 62.9998 40.9915 0 40.9915"></polygon>
    </defs>
    <g id="MixPlay_logo" stroke="none" stroke-width="1" fill="none" fill-rule="evenodd">
        <g id="MixPlay-logo">
            <path d="M172.5826,43.9876 L172.5826,12.3866 L173.4816,12.3866 C175.7476,12.3866 177.5846,14.5126 177.5846,17.6606 L177.5846,43.9866 C177.5846,44.3866 177.2606,44.7126 176.8616,44.7126 L173.3096,44.7126 C172.9076,44.7126 172.5826,44.3866 172.5826,43.9876" id="Fill-1" fill="#FFFFFF"></path>
            <path d="M206.9694,54.9358 C205.9864,54.9358 205.1364,54.8648 204.4194,54.7228 C204.0784,54.6558 203.8354,54.3598 203.8354,54.0138 L203.8354,51.2778 C203.8354,50.7918 204.3034,50.4638 204.7734,50.5928 C205.2834,50.7328 205.8024,50.8028 206.3294,50.8028 C208.1394,50.8028 209.4624,49.8428 210.3014,47.9228 L211.8464,44.3628 L203.1984,22.8478 C203.0074,22.3708 203.3604,21.8528 203.8744,21.8528 L207.9084,21.8528 C208.0904,21.8528 208.2534,21.9648 208.3184,22.1358 L214.1094,37.5628 C214.2294,37.9018 214.7074,37.9058 214.8334,37.5698 L220.5634,22.3508 C220.6754,22.0508 220.9624,21.8528 221.2834,21.8528 L225.2824,21.8528 C225.4434,21.8528 225.5524,22.0128 225.4944,22.1618 L215.8184,47.0668 C214.7874,49.7918 213.5374,51.7848 212.0674,53.0448 C210.5954,54.3048 208.8964,54.9358 206.9694,54.9358" id="Fill-3" fill="#FFFFFF"></path>
            <path d="M186.5992,37.6184 C186.5992,38.5864 186.9522,39.3594 187.6582,39.9374 C188.3652,40.5164 189.2612,40.8064 190.3492,40.8064 C191.8652,40.8064 193.1152,40.2894 194.1012,39.2574 C195.0862,38.2234 195.5792,36.9234 195.5792,35.3544 L195.5792,33.3324 L190.7032,33.9704 C189.1592,34.1894 188.0882,34.5714 187.4932,35.1134 C186.8962,35.6554 186.5992,36.4914 186.5992,37.6184 Z M198.0702,44.7124 C196.6702,44.7124 195.5362,43.5814 195.5362,42.1864 L195.5362,41.1814 L195.4472,41.1814 C193.8722,43.6134 191.6442,44.8294 188.7612,44.8294 C186.5392,44.8294 184.7882,44.2284 183.5102,43.0264 C182.2292,41.8254 181.5892,40.1984 181.5892,38.1464 C181.5892,36.0364 182.2142,34.3444 183.4652,33.0684 C184.7152,31.7944 186.5542,31.0024 188.9822,30.6944 L195.5792,29.7934 C195.5792,26.7304 194.1532,25.1994 191.2982,25.1994 C189.9152,25.1994 188.5742,25.4264 187.2722,25.8814 C186.2302,26.2444 185.2812,26.7064 184.4222,27.2664 C184.1532,27.4424 183.7962,27.2634 183.7962,26.9424 L183.7962,24.0204 C183.7962,23.5114 184.0782,23.0354 184.5392,22.8174 C185.2902,22.4634 186.2602,22.1364 187.4492,21.8364 C189.0742,21.4264 190.5342,21.2214 191.8282,21.2214 C194.7262,21.2214 196.9072,21.9714 198.3702,23.4734 C199.8342,24.9764 200.5662,27.1554 200.5662,30.0134 L200.5662,44.7124 L198.0702,44.7124 Z" id="Fill-5" fill="#FFFFFF"></path>
            <path d="M116.7369,22.4661 C115.2839,22.4661 114.2369,23.6481 114.2369,25.1001 L114.2369,43.9871 C114.2369,44.3871 114.5609,44.7121 114.9619,44.7121 L118.5119,44.7121 C118.9129,44.7121 119.2369,44.3871 119.2369,43.9871 L119.2369,25.1001 C119.2369,23.6481 118.1889,22.4661 116.7369,22.4661" id="Fill-7" fill="#00BCF2"></path>
            <path d="M114.2369,15.886 C114.2369,17.266 115.3559,18.386 116.7369,18.386 C118.1179,18.386 119.2369,17.266 119.2369,15.886 C119.2369,14.505 118.1179,13.385 116.7369,13.385 C115.3559,13.385 114.2369,14.505 114.2369,15.886" id="Fill-9" fill="#00BCF2"></path>
            <g id="Group-13" transform="translate(0.000000, 22.000000)">
                <mask id="mask-2" fill="white">
                    <use xlink:href="#path-1"></use>
                </mask>
                <g id="Clip-12"></g>
                <path d="M49.9098,41.0003 L15.0458,41.0003 C6.7498,41.0003 -0.0002,34.3173 -0.0002,26.1033 L-0.0002,10.5453 C-0.0002,4.7353 4.7688,0.0093 10.6318,0.0093 L14.8888,0.0093 C16.2688,0.0093 17.3888,1.1283 17.3888,2.5093 C17.3888,3.8903 16.2688,5.0093 14.8888,5.0093 L10.6318,5.0093 C7.5268,5.0093 4.9998,7.4933 4.9998,10.5453 L4.9998,26.1033 C4.9998,31.5603 9.5068,36.0003 15.0458,36.0003 L49.9098,36.0003 C54.3708,36.0003 57.9998,32.4283 57.9998,28.0363 C57.9998,26.6553 59.1188,25.5363 60.4998,25.5363 C61.8808,25.5363 62.9998,26.6553 62.9998,28.0363 C62.9998,35.1853 57.1278,41.0003 49.9098,41.0003" id="Fill-11" fill="#FFFFFF" mask="url(#mask-2)"></path>
            </g>
            <g id="Group-16">
                <mask id="mask-4" fill="white">
                    <use xlink:href="#path-3"></use>
                </mask>
                <g id="Clip-15"></g>
                <path d="M52.3688,40.9915 L48.1118,40.9915 C46.7308,40.9915 45.6118,39.8725 45.6118,38.4915 C45.6118,37.1105 46.7308,35.9915 48.1118,35.9915 L52.3688,35.9915 C55.4738,35.9915 57.9998,33.5085 57.9998,30.4555 L57.9998,14.8975 C57.9998,9.4405 53.5998,4.9995 48.1908,4.9995 L13.3268,4.9995 C8.6578,4.9995 4.9998,8.4985 4.9998,12.9645 C4.9998,14.3455 3.8808,15.4645 2.4998,15.4645 C1.1188,15.4645 -0.0002,14.3455 -0.0002,12.9645 C-0.0002,5.6955 5.8538,-0.0005 13.3268,-0.0005 L48.1908,-0.0005 C56.3568,-0.0005 62.9998,6.6825 62.9998,14.8975 L62.9998,30.4555 C62.9998,36.2655 58.2308,40.9915 52.3688,40.9915" id="Fill-14" fill="#00BCF2" mask="url(#mask-4)"></path>
            </g>
            <path d="M24.839,13.6697 C23.878,12.3787 21.992,12.1707 20.77,13.2807 C19.706,14.2477 19.633,15.9057 20.491,17.0587 L26.018,24.4827 L20.45,31.9607 C19.592,33.1137 19.665,34.7717 20.729,35.7387 C21.952,36.8477 23.837,36.6407 24.798,35.3487 L32.568,24.9127 C32.758,24.6567 32.758,24.3067 32.568,24.0517 L24.839,13.6697 Z" id="Fill-17" fill="#FFFFFF"></path>
            <path d="M38.0983,27.6512 C39.0593,26.3602 40.9453,26.1522 42.1663,27.2622 C43.2303,28.2292 43.3043,29.8872 42.4453,31.0402 L36.9183,38.4632 L42.4863,45.9422 C43.3453,47.0952 43.2713,48.7532 42.2073,49.7202 C40.9863,50.8292 39.1003,50.6222 38.1393,49.3302 L30.3693,38.8942 C30.1793,38.6382 30.1793,38.2882 30.3693,38.0332 L38.0983,27.6512 Z" id="Fill-19" fill="#00BCF2"></path>
            <path d="M131.2125,33.4329 L123.5805,23.3629 C123.2965,23.0049 123.5595,22.4849 124.0245,22.4849 L128.3455,22.4849 C128.5215,22.4849 128.6875,22.5659 128.7935,22.7029 L134.3855,29.9759 L139.9775,22.7029 C140.0825,22.5659 140.2485,22.4849 140.4245,22.4849 L144.7225,22.4849 C145.1865,22.4849 145.4485,23.0029 145.1665,23.3609 L137.2165,33.4749 L145.4495,43.8329 C145.7345,44.1909 145.4735,44.7119 145.0075,44.7119 L140.3245,44.7119 C140.1505,44.7119 139.9845,44.6319 139.8795,44.4959 L134.0925,37.0559 L128.3055,44.4959 C128.1985,44.6319 128.0335,44.7119 127.8585,44.7119 L123.9135,44.7119 C123.4505,44.7119 123.1885,44.1959 123.4675,43.8369 L131.2125,33.4329 Z" id="Fill-21" fill="#00BCF2"></path>
            <path d="M107.1105,12.387 L102.3795,12.387 C102.1845,12.387 102.0065,12.494 101.9165,12.666 L93.4145,30.969 L85.4625,14.226 C84.8465,13.113 83.6575,12.359 82.2915,12.359 L78.9025,12.359 L78.9025,43.988 C78.9025,44.388 79.2425,44.711 79.6435,44.711 L83.1805,44.711 C83.5815,44.711 83.9045,44.388 83.9045,43.988 L83.9045,20.47 L91.0685,36.983 C91.1565,37.158 91.3375,37.269 91.5335,37.269 L95.0835,37.269 C95.2795,37.269 95.4595,37.158 95.5485,36.983 L102.8375,20.47 L102.8375,43.987 C102.8375,44.388 103.1625,44.711 103.5635,44.711 L107.1135,44.711 C107.5145,44.711 107.8365,44.388 107.8365,43.987 L107.8365,13.114 C107.8365,12.713 107.5115,12.387 107.1105,12.387" id="Fill-23" fill="#00BCF2"></path>
            <path d="M161.5778,26.3587 C160.3858,27.3207 158.7278,27.8017 156.6028,27.8017 L154.3088,27.8017 L154.3088,16.6907 L156.8408,16.6907 C158.9658,16.6907 160.5828,17.1607 161.6968,18.1007 C162.8078,19.0417 163.3648,20.3797 163.3648,22.1167 C163.3648,23.9837 162.7678,25.3967 161.5778,26.3587 M165.8938,14.8377 C163.9928,13.1877 161.2688,12.3617 157.7238,12.3617 L149.2808,12.3617 L149.2808,43.9867 C149.2808,44.3867 149.5068,44.7117 149.9078,44.7117 L153.5558,44.7117 C153.9558,44.7117 154.2798,44.3877 154.2798,43.9867 L154.2798,32.1297 L156.9688,32.1297 C159.2808,32.1297 161.3328,31.6987 163.1288,30.8377 C164.9218,29.9767 166.3068,28.7667 167.2838,27.2097 C168.2598,25.6507 168.7478,23.8977 168.7478,21.9447 C168.7478,18.8587 167.7968,16.4897 165.8938,14.8377" id="Fill-25" fill="#FFFFFF"></path>
        </g>
    </g>
</svg>