<?xml version="1.0" encoding="utf-8"?>
<!-- Generator: Adobe Illustrator 20.1.0, SVG Export Plug-In . SVG Version: 6.00 Build 0)  -->
<svg version="1.1" id="Layer_1" xmlns="http://www.w3.org/2000/svg" xmlns:xlink="http://www.w3.org/1999/xlink" x="0px" y="0px"
	 viewBox="0 0 241 84" style="enable-background:new 0 0 241 84;" xml:space="preserve">
<path d="M51,8C41.5,8,8,8,8,8l4.5,11.9h2.9V76h36c7.9,0,12.1-4.3,12.1-12.4V51.5c0-3.3-0.7-5.5-2.1-7c-1.2-1.3-2.9-2-5.3-2.3
	l-5.7-0.8l5.3-1.3c6.4-1.4,7-5.5,7-9.7c0,0,0-4.9,0-10.5S60.5,8,51,8z M49.2,61.5c-0.1,1.6-1.1,2.5-2.7,2.5H29.6l0.1-17.3
	c0,0,13.6,0,16.5,0s3,2.4,3,3L49.2,61.5z M48.4,22.9c0,1.8,0,10.1,0,10.1c0,1.6-0.9,2.6-2.5,2.6H29.7V19.9c0,0,13.9,0,15.8,0
	C47.4,19.9,48.4,21,48.4,22.9z"/>
<path d="M119.1,76l21.8-56.1l10.5,26.9h-13l-4.2,11.1h21.5l7.1,18.1h21V28.2L200,52.3h5l16.4-24.1V76h12.1V8h-12l-19.1,28L183.9,8
	h-12.6v55.9L149.1,8h-17.2l-21.6,56.1L80.2,64l-0.1-17.3h23.8V35.6H80l-0.1-15.7h30.3V8h-39c-2.9,0-5,2.1-5,4.9V69
	c0,3.6,3.3,6.8,6.9,7H119.1z"/>
</svg>
