<?xml version="1.0" encoding="utf-8"?>
<!-- Generator: Adobe Illustrator 20.1.0, SVG Export Plug-In . SVG Version: 6.00 Build 0)  -->
<svg version="1.1" id="Layer_1" xmlns="http://www.w3.org/2000/svg" xmlns:xlink="http://www.w3.org/1999/xlink" x="0px" y="0px"
	 viewBox="0 0 241 84" style="enable-background:new 0 0 241 84;" xml:space="preserve">
<path d="M51.6,76H15.6V21.5h-2.5L8,8h43.2c8,0,12.3,4.5,12.3,12.5v10.2c0,3,0,8.7-7.6,10.4l-0.2,0.1l0.5,0.1
	c2.6,0.3,4.4,1.1,5.7,2.5c1.6,1.7,2.3,4.1,2.3,7.5V63C64.3,71.4,59.8,76,51.6,76z M17.6,74.1h34c7.2,0,10.8-3.7,10.8-11.1V51.2
	c0-2.9-0.6-4.8-1.8-6.1c-1-1.1-2.4-1.7-4.6-1.9l-10.6-1.5l10.1-2.5c5.6-1.2,6.1-4.6,6.1-8.5V20.5c0-7-3.5-10.6-10.4-10.6H10.8
	l3.6,9.6h3.1V74.1z M46.8,64.3H29.4l0.1-18.7h17c2.9,0,3.9,2,3.9,3.9l0,11.5C50.3,63.1,48.9,64.3,46.8,64.3z M31.4,62.4h15.4
	c1,0,1.6-0.5,1.7-1.5V49.5c0-1.9-1.4-1.9-1.9-1.9H31.5L31.4,62.4z M46.2,36.8H29.5V19.6h16.3c2.3,0,3.8,1.5,3.8,3.9v9.8
	C49.6,35.4,48.3,36.8,46.2,36.8z M31.5,34.8h14.8c1,0,1.5-0.5,1.5-1.6v-9.8c0-1.3-0.6-1.9-1.8-1.9H31.5V34.8z"/>
<path d="M229.4,76h-13.7V31.7L201.3,53h-5.9l-14.2-21.2V76h-22l-6.9-17.6h-21.6l4.8-12.7h11.9l-8.8-22.5L118,76H72.6
	c-4.1-0.2-7.7-3.9-7.7-7.8V13.7c0-3.3,2.5-5.7,5.8-5.7h38.9v13.5H80.2l0.1,13.3h23.2v12.7H80.4l0.1,14.9l27.6,0.1l21-54.5h18
	l19.9,50.2V8h13.7l17.5,26.4l18-26.4h13.1V76z M70.8,9.9c-2.3,0-3.9,1.6-3.9,3.8v54.5c0,2.9,2.7,5.7,5.8,5.8l44,0l21.8-56.2
	l11.6,29.8h-13.4l-3.3,8.8h20.1l6.9,17.6h18.8V25.4L196.4,51h3.8l17.4-25.6v48.6h9.8V9.9h-10.2l-19.1,28l-18.5-28H169v58.4
	L145.8,9.9h-15.4l-21,54.5l-30.9-0.1l-0.1-18.7h23.1v-8.8H78.4l-0.1-17.2h29.4V9.9H70.8z"/>
</svg>
