<?xml version="1.0" encoding="utf-8"?>
<!-- Generator: Adobe Illustrator 18.1.1, SVG Export Plug-In . SVG Version: 6.00 Build 0)  -->
<svg version="1.1" id="Layer_1" xmlns="http://www.w3.org/2000/svg" xmlns:xlink="http://www.w3.org/1999/xlink" x="0px" y="0px"
	 viewBox="0 0 256 256" enable-background="new 0 0 256 256" xml:space="preserve">
<g>
	<g>
		<path fill="#FFFFFF" d="M128.3,2.5C59,2.5,2.8,58.7,2.8,128S59,253.5,128.3,253.5S253.8,197.3,253.8,128S197.6,2.5,128.3,2.5z
			 M188.7,110c2.3,18.2-2.9,37.4-21.9,56.4c-19.2,19.2-38.7,24.4-57,21.9c17.5,32.2,33.9,59,18.5,59C62.3,247.4,8.9,194,8.9,128
			c0-24.7,45.6,52.7,100.8,60.3c-19.4-35.8-40.2-78.5-20-98.8C109.9,69.5,152.7,90.6,188.7,110C181.6,54.5,103.5,8.6,128.3,8.6
			c66,0,119.4,53.4,119.4,119.4C247.7,143.8,221,127.6,188.7,110z"/>
	</g>
</g>
</svg>
