<?xml version="1.0" encoding="utf-8"?>
<!-- Generator: Adobe Illustrator 18.1.1, SVG Export Plug-In . SVG Version: 6.00 Build 0)  -->
<svg version="1.1" id="Layer_1" xmlns="http://www.w3.org/2000/svg" xmlns:xlink="http://www.w3.org/1999/xlink" x="0px" y="0px"
	 viewBox="0 0 255 255" enable-background="new 0 0 255 255" xml:space="preserve">
<path fill-rule="evenodd" clip-rule="evenodd" fill="#FFFFFF" d="M128.2,6.4c68,0,121,55.1,121,123.1c0,68-53,118.9-121,118.9
	S5.1,197.4,5.1,129.4C5.1,61.5,60.2,6.4,128.2,6.4z"/>
<path fill-rule="evenodd" clip-rule="evenodd" fill="#262262" d="M130.5,69.2c33.7,0,61,27.3,61,61c0,33.7-27.3,61-61,61
	c-33.7,0-61-27.3-61-61C69.5,96.5,96.8,69.2,130.5,69.2z"/>
<g>
	<g>
		
			<linearGradient id="SVGID_1_" gradientUnits="userSpaceOnUse" x1="185.5456" y1="239.9164" x2="72.0238" y2="17.1173" gradientTransform="matrix(1 0 0 1 -1 -1)">
			<stop  offset="0" style="stop-color:#6D3C97"/>
			<stop  offset="1" style="stop-color:#3EC7F4"/>
		</linearGradient>
		<path fill-rule="evenodd" clip-rule="evenodd" fill="url(#SVGID_1_)" d="M127.8,2.5c-69,0-125,56-125,125s56,125,125,125
			s125-56,125-125S196.8,2.5,127.8,2.5z M188,109.6c2.3,18.1-2.9,37.3-21.8,56.2c-19.1,19.1-38.5,24.3-56.8,21.8
			c17.4,32.1,33.8,58.8,18.4,58.8c-65.7,0-118.9-53.2-118.9-118.9c0-24.6,45.4,52.5,100.4,60.1C90,151.9,69.3,109.4,89.4,89.2
			C109.5,69.2,152.1,90.2,188,109.6c-7.1-55.3-84.9-101-60.2-101c65.7,0,118.9,53.2,118.9,118.9C246.7,143.2,220.1,127.1,188,109.6z
			"/>
	</g>
</g>
</svg>
