<?xml version="1.0" encoding="utf-8"?>
<!-- Generator: Adobe Illustrator 18.1.1, SVG Export Plug-In . SVG Version: 6.00 Build 0)  -->
<svg version="1.1" id="Layer_1" xmlns="http://www.w3.org/2000/svg" xmlns:xlink="http://www.w3.org/1999/xlink" x="0px" y="0px"
	 viewBox="0 0 404 125" enable-background="new 0 0 404 125" xml:space="preserve">
<path fill-rule="evenodd" clip-rule="evenodd" fill="#FFFFFF" d="M63,5.4c32.5,0,57.9,26.5,57.9,59.1c0,32.6-25.4,57.1-57.9,57.1
	S4.1,97.1,4.1,64.4C4.1,31.8,30.4,5.4,63,5.4z"/>
<path fill-rule="evenodd" clip-rule="evenodd" fill="#262262" d="M64.1,35.5c16.1,0,29.2,13.1,29.2,29.3c0,16.2-13.1,29.3-29.2,29.3
	C48,94.1,34.9,81,34.9,64.8C34.9,48.7,48,35.5,64.1,35.5z"/>
<g>
	<path fill="#FFFFFF" d="M314.5,51.4l-1.3,6.3c-3.2-4.8-8.9-7.5-15.3-7.5c-10.9,0-18.5,7.1-22.3,16.1c-2.1-10.2-10.5-16.1-21-16.1
		c-14.8,0-26,11.4-27.5,25.5c-1.2-4.4-4.2-8.2-9-9.4c8-0.8,15.1-8.3,15.1-17.2c0-8.4-6.4-15.9-17.9-15.9h-32.1l-14.6,66.1h36.1
		c14.4,0,21.2-7.9,22.7-16c1.9,10.8,11,17.2,24.4,17.2c5.9,0,12.3-1.8,16.9-5l-4-8.6c-3,2.3-7.9,3.6-12.1,3.6
		c-8.8,0-13.1-5.8-13.1-9.9c0-0.3,0-1,0-1.2h33.1c0,0.4,0,0.9,0,1.3c0,12.7,7.3,19.8,18.2,19.8c5.7,0,10.3-2.4,14.4-7.1l-1.4,5.9
		h12.7l10.6-47.9H314.5z M203.6,87.1h-18.2l3.4-15.4h17.6c4.5,0,7.2,2.8,7.2,6.7C213.6,83.2,210,87.1,203.6,87.1z M209.3,59.7h-17.7
		l3.2-14.4h16.8c3.9,0,6.7,2.7,6.7,6.1C218.2,55.3,216,59.7,209.3,59.7z M264.9,70.9h-24c1.1-5.3,6.2-10.6,13-10.6
		c7.6,0,11,4.9,11,9.6C264.9,70.1,264.9,70.7,264.9,70.9z M307.5,83.7c-2.6,3.3-6.5,5.6-11,5.6c-6,0-10.6-4.4-10.6-11.2
		c0-8.8,5.8-16.7,14.1-16.7c5.1,0,9.1,2.4,11.2,5.6L307.5,83.7z"/>
	<path fill="#FFFFFF" d="M386.3,50.3c-7.3,0-12.8,4.2-16.6,8.8c0-0.1,0,0,0-0.2c0-1.8-3.8-8.6-13.2-8.6c-7,0-11.9,4.6-14.6,7.4
		l1.4-6.2h-12.6l-10.6,47.9h12.6l7.1-32.3c2.4-2.7,6-5.6,9.8-5.6c4.5,0,6.9,2.4,7,5.5c0,1.3-0.3,2.5-0.5,3.5l-6.4,28.9h12.7l7-32.3
		c2.5-2.8,6.1-5.6,10-5.6c3.7,0,6.8,2.1,6.8,5.7c0,1.2-0.3,2.6-0.4,3.2l-6.4,28.9h12.7l7.2-32.9c0.2-0.8,0.5-2.7,0.5-4
		C400,54.6,393.5,50.3,386.3,50.3z"/>
</g>
<g>
	<g>
		
			<linearGradient id="SVGID_1_" gradientUnits="userSpaceOnUse" x1="-447.9598" y1="466.4374" x2="-502.4152" y2="359.5626" gradientTransform="matrix(1 0 0 1 537.9722 -349.4831)">
			<stop  offset="0" style="stop-color:#6D3C97"/>
			<stop  offset="1" style="stop-color:#3EC7F4"/>
		</linearGradient>
		<path fill-rule="evenodd" clip-rule="evenodd" fill="url(#SVGID_1_)" d="M62.8,3.5C29.8,3.5,3,30.4,3,63.5s26.8,60,59.8,60
			s59.8-26.9,59.8-60S95.8,3.5,62.8,3.5z M91.6,54.9c1.1,8.7-1.4,17.9-10.4,27C72,91.1,62.7,93.6,54,92.4
			c8.3,15.4,16.2,28.2,8.8,28.2C31.4,120.6,5.9,95,5.9,63.5c0-11.8,21.7,25.2,48.1,28.8c-9.3-17.2-19.2-37.6-9.5-47.3
			C54,35.5,74.4,45.6,91.6,54.9C88.2,28.4,51,6.5,62.8,6.5c31.4,0,56.9,25.5,56.9,57.1C119.7,71,106.9,63.3,91.6,54.9z"/>
	</g>
</g>
</svg>
