<?xml version="1.0" encoding="utf-8"?>
<!-- Generator: Adobe Illustrator 18.1.1, SVG Export Plug-In . SVG Version: 6.00 Build 0)  -->
<svg version="1.1" id="Layer_1" xmlns="http://www.w3.org/2000/svg" xmlns:xlink="http://www.w3.org/1999/xlink" x="0px" y="0px"
	 viewBox="0 0 256 256" enable-background="new 0 0 256 256" xml:space="preserve">
<g>
	<path fill="#FFFFFF" d="M199.3,121l-0.8,4c-2-3-5.6-4.8-9.7-4.8c-6.9,0-11.7,4.5-14.1,10.2c-1.3-6.5-6.7-10.2-13.3-10.2
		c-9.4,0-16.5,7.2-17.4,16.2c-0.8-2.8-2.7-5.2-5.7-6c5.1-0.5,9.6-5.3,9.6-10.9c0-5.3-4.1-10.1-11.3-10.1h-20.3l-9.3,41.9h22.9
		c9.1,0,13.4-5,14.4-10.1c1.2,6.8,7,10.9,15.5,10.9c3.7,0,7.8-1.1,10.7-3.2l-2.5-5.4c-1.9,1.5-5,2.3-7.7,2.3c-5.6,0-8.3-3.7-8.3-6.3
		c0-0.2,0-0.6,0-0.8h21c0,0.3,0,0.6,0,0.8c0,8,4.6,12.5,11.5,12.5c3.6,0,6.5-1.5,9.1-4.5l-0.9,3.7h8l6.7-30.4H199.3z M129,143.6
		h-11.5l2.2-9.8h11.2c2.9,0,4.6,1.8,4.6,4.2C135.4,141.1,133.1,143.6,129,143.6z M132.6,126.2h-11.2l2-9.1h10.6
		c2.5,0,4.2,1.7,4.2,3.9C138.3,123.4,136.9,126.2,132.6,126.2z M167.9,133.3h-15.2c0.7-3.4,3.9-6.7,8.2-6.7c4.8,0,7,3.1,7,6.1
		C167.9,132.8,167.9,133.2,167.9,133.3z M194.9,141.4c-1.6,2.1-4.1,3.5-7,3.5c-3.8,0-6.7-2.8-6.7-7.1c0-5.6,3.7-10.6,8.9-10.6
		c3.2,0,5.8,1.5,7.1,3.5L194.9,141.4z"/>
	<path fill="#FFFFFF" d="M244.8,120.3c-4.6,0-8.1,2.7-10.5,5.6c0-0.1,0,0,0-0.1c0-1.1-2.4-5.4-8.4-5.4c-4.4,0-7.5,2.9-9.3,4.7
		l0.9-3.9h-8l-6.7,30.4h8l4.5-20.5c1.5-1.7,3.8-3.5,6.2-3.5c2.9,0,4.4,1.5,4.4,3.5c0,0.8-0.2,1.6-0.3,2.2l-4.1,18.3h8l4.4-20.5
		c1.6-1.8,3.9-3.5,6.3-3.5c2.3,0,4.3,1.3,4.3,3.6c0,0.8-0.2,1.6-0.3,2l-4.1,18.3h8l4.6-20.8c0.1-0.5,0.3-1.7,0.3-2.5
		C253.5,123,249.3,120.3,244.8,120.3z"/>
</g>
<g>
	<g>
		<path fill="#FFFFFF" d="M39.8,90.6c-20.9,0-37.9,17-37.9,38s17,38,37.9,38s37.9-17,37.9-38S60.7,90.6,39.8,90.6z M58,123.2
			c0.7,5.5-0.9,11.3-6.6,17.1c-5.8,5.8-11.7,7.4-17.2,6.7c5.3,9.8,10.3,17.9,5.6,17.9c-19.9,0-36.1-16.2-36.1-36.2
			c0-7.5,13.8,16,30.5,18.2c-5.9-10.9-12.2-23.8-6-30C34.2,110.9,47.1,117.3,58,123.2c-2.2-16.8-25.7-30.7-18.2-30.7
			c19.9,0,36.1,16.2,36.1,36.2C75.8,133.4,67.7,128.5,58,123.2z"/>
	</g>
</g>
</svg>
